<svg xmlns="http://www.w3.org/2000/svg" viewBox="0 0 190 41">
<path d="M50 40V0H74.95C79.85 0 83.9 4.05 83.9 8.95C83.9 10.65 83.4 12.25 82.55 13.65C85.8 16.4 87.9 20.5 87.9 25.05C87.9 33.25 81.15 40 72.85 40H50ZM68.2 17.8C70.2 17.8 71.75 16.25 71.75 14.25C71.75 12.2 70.2 10.65 68.2 10.65C66.2 10.65 64.6 12.2 64.6 14.25C64.6 16.25 66.2 17.8 68.2 17.8ZM68.2 29.3C70.2 29.3 71.75 27.75 71.75 25.75C71.75 23.7 70.2 22.15 68.2 22.15C66.2 22.15 64.6 23.7 64.6 25.75C64.6 27.75 66.2 29.3 68.2 29.3Z" fill="black"/>
<path d="M89.4043 40V9H110.854V21.2H103.754V40H89.4043Z" fill="black"/>
<path d="M128.263 40.85C118.963 40.85 111.463 33.5 111.463 24.5C111.463 15.5 118.963 8.2 128.263 8.2C137.513 8.2 145.013 15.45 145.013 24.5C145.013 33.5 137.463 40.85 128.263 40.85ZM128.213 28.4C130.313 28.4 132.063 26.65 132.063 24.55C132.063 22.45 130.313 20.7 128.213 20.7C126.113 20.7 124.363 22.45 124.363 24.55C124.363 26.65 126.113 28.4 128.213 28.4Z" fill="black"/>
<path d="M146.533 40V9H179.983V40H166.133V23.15C166.133 21.5 164.933 20.25 163.283 20.25C161.633 20.25 160.383 21.5 160.383 23.15V40H146.533Z" fill="black"/>
<rect width="40" height="40" fill="#9333ea"/>
<rect x="13.3335" y="13.3335" width="13.3333" height="13.3333" fill="white"/>
<mask id="mask0_898_485" style="mask-type:alpha" maskUnits="userSpaceOnUse" x="0" y="0" width="40" height="40">
<rect width="40" height="40" fill="#CCFF00"/>
</mask>
<g mask="url(#mask0_898_485)">
<path fill-rule="evenodd" clip-rule="evenodd" d="M19.9998 31.2502C30.1251 31.2502 38.3332 19.7918 38.3332 19.7918C38.3332 19.7918 30.1251 8.3335 19.9998 8.3335C9.87462 8.3335 1.6665 19.7918 1.6665 19.7918C1.6665 19.7918 9.87462 31.2502 19.9998 31.2502ZM19.9999 26.6669C23.6818 26.6669 26.6665 23.6821 26.6665 20.0002C26.6665 16.3183 23.6818 13.3336 19.9999 13.3336C16.318 13.3336 13.3332 16.3183 13.3332 20.0002C13.3332 23.6821 16.318 26.6669 19.9999 26.6669Z" fill="black"/>
</g>
<path d="M185.54 8.55508C187.78 8.55508 189.595 6.73953 189.595 4.49995C189.595 2.26037 187.78 0.444824 185.54 0.444824C183.3 0.444824 181.485 2.26037 181.485 4.49995C181.485 6.73953 183.3 8.55508 185.54 8.55508Z" fill="white"/>
<path d="M185.492 0C186.751 0 187.822 0.43946 188.706 1.31796C189.129 1.74111 189.451 2.22472 189.67 2.76839C189.89 3.31219 190 3.88933 190 4.50007C190 5.11616 189.891 5.69343 189.675 6.23161C189.458 6.76993 189.137 7.24553 188.714 7.65799C188.275 8.09183 187.777 8.42413 187.22 8.65448C186.663 8.88483 186.087 9 185.492 9C184.897 9 184.328 8.88637 183.784 8.65842C183.241 8.43088 182.753 8.10139 182.322 7.67023C181.891 7.23907 181.563 6.75278 181.338 6.21164C181.113 5.67051 181 5.10013 181 4.50007C181 3.90536 181.114 3.33357 181.341 2.78442C181.569 2.23527 181.9 1.74378 182.334 1.3098C183.191 0.436788 184.244 0 185.492 0ZM185.508 0.8117C184.48 0.8117 183.614 1.17072 182.912 1.88848C182.559 2.2475 182.287 2.65054 182.097 3.09788C181.906 3.54521 181.811 4.01266 181.811 4.50021C181.811 4.98242 181.906 5.44719 182.097 5.89425C182.287 6.34186 182.559 6.74096 182.912 7.09183C183.266 7.44283 183.665 7.71045 184.11 7.89551C184.554 8.0803 185.021 8.17269 185.508 8.17269C185.99 8.17269 186.457 8.07917 186.911 7.89158C187.363 7.70384 187.771 7.43355 188.136 7.08002C188.838 6.39432 189.188 5.53452 189.188 4.50035C189.188 4.00211 189.097 3.53073 188.915 3.08606C188.733 2.6414 188.468 2.24511 188.12 1.89664C187.396 1.17339 186.526 0.8117 185.508 0.8117ZM185.452 3.75292L184.849 4.06638C184.784 3.93264 184.706 3.8387 184.612 3.78512C184.518 3.73168 184.431 3.70482 184.351 3.70482C183.949 3.70482 183.748 3.96991 183.748 4.50035C183.748 4.74139 183.799 4.93405 183.9 5.07875C184.002 5.22346 184.152 5.29588 184.351 5.29588C184.613 5.29588 184.798 5.16721 184.905 4.91014L185.46 5.19139C185.342 5.41119 185.178 5.58388 184.969 5.70975C184.761 5.83575 184.53 5.89861 184.278 5.89861C183.877 5.89861 183.552 5.77556 183.306 5.5289C183.059 5.28252 182.936 4.93967 182.936 4.50049C182.936 4.07186 183.061 3.73182 183.31 3.47996C183.559 3.22824 183.874 3.10224 184.254 3.10224C184.812 3.10195 185.211 3.31894 185.452 3.75292ZM188.047 3.75292L187.453 4.06638C187.388 3.93264 187.309 3.8387 187.215 3.78512C187.122 3.73168 187.032 3.70482 186.946 3.70482C186.545 3.70482 186.343 3.96991 186.343 4.50035C186.343 4.74139 186.394 4.93405 186.496 5.07875C186.598 5.22346 186.748 5.29588 186.946 5.29588C187.209 5.29588 187.393 5.16721 187.5 4.91014L188.063 5.19139C187.94 5.41119 187.774 5.58388 187.565 5.70975C187.356 5.83575 187.128 5.89861 186.882 5.89861C186.475 5.89861 186.149 5.77556 185.906 5.5289C185.662 5.28252 185.54 4.93967 185.54 4.50049C185.54 4.07186 185.664 3.73182 185.914 3.47996C186.163 3.22824 186.477 3.10224 186.858 3.10224C187.415 3.10195 187.812 3.31894 188.047 3.75292Z" fill="black"/>
</svg>
