<svg width="121" height="26" viewBox="0 0 121 26" fill="none" xmlns="http://www.w3.org/2000/svg">
  <path d="M32.1191 0.390869H47.9201C51.0227 0.390869 53.5884 2.93108 53.5884 6.00277C53.5884 7.06966 53.2726 8.07011 52.7318 8.94941C54.7884 10.6728 56.1186 13.2443 56.1186 16.0972C56.1186 21.2401 51.8437 25.4686 46.5899 25.4686H32.1191V0.390869ZM45.8952 9.32458C45.8952 8.03885 44.9123 7.06575 43.6452 7.06575C42.3781 7.06575 41.3637 8.03885 41.3637 9.32458C41.3637 10.6103 42.3781 11.5521 43.6452 11.5521C44.9123 11.5521 45.8952 10.5791 45.8952 9.32458ZM45.8952 16.5349C45.8952 15.2491 44.9123 14.276 43.6452 14.276C42.3781 14.276 41.3637 15.2491 41.3637 16.5349C41.3637 17.8206 42.3781 18.7624 43.6452 18.7624C44.9123 18.7624 45.8952 17.7893 45.8952 16.5349Z" fill="currentColor"/>
  <path d="M57.0698 6.03394H70.6524V13.6819H66.1565V25.4685H57.0698V6.03394Z" fill="currentColor"/>
  <path d="M71.0315 15.7492C71.0315 10.1061 75.7801 5.52979 81.6694 5.52979C87.5588 5.52979 92.2758 10.0748 92.2758 15.7492C92.2758 21.4237 87.4956 25.9999 81.6694 25.9999C75.8432 25.9999 71.0315 21.3924 71.0315 15.7492ZM84.0773 15.7805C84.0773 14.4635 82.9681 13.3653 81.6378 13.3653C80.3076 13.3653 79.1984 14.4635 79.1984 15.7805C79.1984 17.0975 80.3076 18.1957 81.6378 18.1957C82.9681 18.1957 84.0773 17.0975 84.0773 15.7805Z" fill="currentColor"/>
  <path d="M93.231 6.03394H114.412V25.4685H105.641V14.9051C105.641 13.8695 104.883 13.0879 103.837 13.0879C102.791 13.0879 102.002 13.8734 102.002 14.9051V25.4685H93.231V6.03394Z" fill="currentColor"/>
  <path d="M26.1152 25.8554H0V0H26.1152V25.8554ZM1.57891 24.2922H24.5363V1.5632H1.57891V24.2922Z" fill="currentColor"/>
  <path fill-rule="evenodd" clip-rule="evenodd" d="M13 18C17.9706 18 22 12.5 22 12.5C22 12.5 17.9706 7 13 7C8.02944 7 4 12.5 4 12.5C4 12.5 8.02944 18 13 18ZM13 15.8C14.8075 15.8 16.2727 14.3674 16.2727 12.6C16.2727 10.8327 14.8075 9.40004 13 9.40004C11.1925 9.40004 9.72729 10.8327 9.72729 12.6C9.72729 14.3674 11.1925 15.8 13 15.8Z" fill="currentColor"/>
  <path d="M117.996 0.304935C118.833 0.304935 119.547 0.594128 120.14 1.17251C120.42 1.44998 120.637 1.77044 120.783 2.12998C120.929 2.48951 121.004 2.86859 121.004 3.27112C121.004 3.67364 120.933 4.05663 120.787 4.41226C120.641 4.76788 120.428 5.08053 120.147 5.35409C119.855 5.63937 119.524 5.85822 119.153 6.01063C118.782 6.16304 118.399 6.2373 118 6.2373C117.601 6.2373 117.226 6.16304 116.863 6.01063C116.5 5.86213 116.176 5.64328 115.888 5.35799C115.6 5.07271 115.383 4.75225 115.233 4.39662C115.083 4.04099 115.008 3.66192 115.008 3.26721C115.008 2.8725 115.083 2.49733 115.237 2.13388C115.387 1.77044 115.608 1.44607 115.9 1.16079C116.473 0.586312 117.171 0.297119 118.004 0.297119L117.996 0.304935ZM118.008 0.840333C117.321 0.840333 116.745 1.07872 116.279 1.55159C116.042 1.78998 115.861 2.05572 115.734 2.34883C115.608 2.64583 115.545 2.95066 115.545 3.27502C115.545 3.59939 115.608 3.90031 115.734 4.19341C115.861 4.49042 116.042 4.75225 116.279 4.98282C116.516 5.2134 116.78 5.38926 117.076 5.51431C117.372 5.63546 117.684 5.69799 118.008 5.69799C118.332 5.69799 118.64 5.63546 118.943 5.51431C119.243 5.38926 119.516 5.2134 119.761 4.97892C120.226 4.52559 120.463 3.95893 120.463 3.27893C120.463 2.95066 120.404 2.63802 120.282 2.34492C120.159 2.05182 119.986 1.78998 119.753 1.55941C119.271 1.08263 118.691 0.844241 118.012 0.844241L118.008 0.840333ZM117.972 2.78261L117.57 2.98974C117.526 2.89985 117.475 2.84123 117.412 2.80606C117.349 2.77089 117.29 2.75135 117.238 2.75135C116.97 2.75135 116.836 2.92721 116.836 3.27502C116.836 3.43525 116.871 3.56031 116.938 3.65801C117.005 3.7518 117.108 3.80261 117.238 3.80261C117.412 3.80261 117.538 3.71663 117.609 3.54858L117.98 3.73226C117.901 3.87686 117.795 3.99019 117.653 4.07226C117.515 4.15433 117.361 4.19731 117.191 4.19731C116.923 4.19731 116.705 4.11525 116.544 3.95502C116.378 3.79088 116.299 3.56812 116.299 3.27502C116.299 2.98192 116.382 2.76698 116.548 2.60285C116.713 2.43871 116.922 2.35273 117.175 2.35273C117.546 2.35273 117.811 2.49733 117.972 2.78261ZM119.701 2.78261L119.307 2.98974C119.263 2.89985 119.212 2.84123 119.149 2.80606C119.086 2.77089 119.026 2.75135 118.971 2.75135C118.703 2.75135 118.569 2.92721 118.569 3.27502C118.569 3.43525 118.604 3.56031 118.671 3.65801C118.738 3.7518 118.837 3.80261 118.971 3.80261C119.145 3.80261 119.267 3.71663 119.342 3.54858L119.717 3.73226C119.634 3.87686 119.524 3.99019 119.386 4.07226C119.247 4.15433 119.093 4.19731 118.932 4.19731C118.659 4.19731 118.442 4.11525 118.28 3.95502C118.119 3.79088 118.036 3.56812 118.036 3.27502C118.036 2.98192 118.119 2.76698 118.284 2.60285C118.45 2.43871 118.659 2.35273 118.912 2.35273C119.283 2.35273 119.547 2.49733 119.705 2.78261H119.701Z" fill="currentColor"/>
</svg>