<svg width="42" height="40" viewBox="0 0 42 40" fill="none" xmlns="http://www.w3.org/2000/svg">
<path fill-rule="evenodd" clip-rule="evenodd" d="M20.5556 0C9.19861 0 0 9.17638 0 20.5059C0 29.5797 5.88403 37.2438 14.0549 39.9608C15.0826 40.1403 15.4681 39.5251 15.4681 38.9868C15.4681 38.4998 15.4424 36.8849 15.4424 35.1676C10.2778 36.116 8.94167 33.9116 8.53056 32.7581C8.29931 32.1686 7.29722 30.3487 6.42361 29.8617C5.70417 29.4772 4.67639 28.5288 6.39792 28.5032C8.01667 28.4775 9.17292 29.9898 9.55833 30.605C11.4083 33.7065 14.3632 32.835 15.5451 32.2968C15.725 30.9639 16.2646 30.0667 16.8556 29.5541C12.2819 29.0414 7.50278 27.2728 7.50278 19.4293C7.50278 17.1993 8.29931 15.3538 9.60972 13.9184C9.40417 13.4057 8.68472 11.3039 9.81528 8.48431C9.81528 8.48431 11.5368 7.94603 15.4681 10.5862C17.1125 10.1248 18.8597 9.89409 20.6069 9.89409C22.3542 9.89409 24.1014 10.1248 25.7458 10.5862C29.6771 7.9204 31.3986 8.48431 31.3986 8.48431C32.5292 11.3039 31.8097 13.4057 31.6042 13.9184C32.9146 15.3538 33.7111 17.1737 33.7111 19.4293C33.7111 27.2984 28.9063 29.0414 24.3326 29.5541C25.0778 30.1949 25.7201 31.4253 25.7201 33.3477C25.7201 36.0903 25.6944 38.2947 25.6944 38.9868C25.6944 39.5251 26.0799 40.1659 27.1076 39.9608C35.2271 37.2438 41.1111 29.5541 41.1111 20.5059C41.1111 9.17638 31.9125 0 20.5556 0Z" fill="black"/>
</svg>
