<svg width="38" height="40" viewBox="0 0 38 40" fill="none" xmlns="http://www.w3.org/2000/svg">
<path d="M36.3237 23.9796C35.7798 26.8012 31.4524 29.8893 26.4823 30.4877C23.8906 30.7996 21.3389 31.0862 18.618 30.9603C14.1681 30.7547 10.6568 29.8893 10.6568 29.8893C10.6568 30.3261 10.6836 30.742 10.737 31.131C11.3155 35.5595 15.0915 35.8248 18.6684 35.9485C22.2786 36.0731 25.4933 35.0509 25.4933 35.0509L25.6416 38.3421C25.6416 38.3421 23.1164 39.7095 18.618 39.961C16.1374 40.0985 13.0574 39.8981 9.47011 38.9406C1.68977 36.864 0.351726 28.5007 0.146991 20.0149C0.0845878 17.4954 0.123056 15.1196 0.123056 13.1326C0.123056 4.45542 5.76095 1.91199 5.76095 1.91199C8.60372 0.595449 13.4817 0.0418086 18.5528 0H18.6774C23.7485 0.0418086 28.6297 0.595449 31.4722 1.91199C31.4722 1.91199 37.1099 4.45542 37.1099 13.1326C37.1099 13.1326 37.1806 19.5347 36.3237 23.9796Z" fill="black"/>
<path d="M30.4599 13.8058V24.3125H26.3321V14.1146C26.3321 11.9649 25.4351 10.8738 23.641 10.8738C21.6574 10.8738 20.6632 12.1681 20.6632 14.7275V20.3094H16.5597V14.7275C16.5597 12.1681 15.5653 10.8738 13.5817 10.8738C11.7876 10.8738 10.8906 11.9649 10.8906 14.1146V24.3125H6.76282V13.8058C6.76282 11.6585 7.305 9.95208 8.39407 8.68963C9.51712 7.42719 10.9879 6.78002 12.8136 6.78002C14.9259 6.78002 16.5255 7.59873 17.5832 9.23638L18.6114 10.9745L19.6397 9.23638C20.6972 7.59873 22.2968 6.78002 24.4093 6.78002C26.2348 6.78002 27.7056 7.42719 28.8288 8.68963C29.9177 9.95208 30.4599 11.6585 30.4599 13.8058Z" fill="white"/>
</svg>
