<svg width="27" height="26" viewBox="0 0 27 26" fill="none" xmlns="http://www.w3.org/2000/svg">
  <rect x="1" y="1" width="24" height="24" fill="#D9D9D9"/>
  <path d="M26.1152 25.8554H0V0H26.1152V25.8554ZM1.57891 24.2922H24.5363V1.5632H1.57891V24.2922Z" fill="black"/>
  <path fill-rule="evenodd" clip-rule="evenodd" d="M13 18C17.9706 18 22 12.5 22 12.5C22 12.5 17.9706 7 13 7C8.02944 7 4 12.5 4 12.5C4 12.5 8.02944 18 13 18ZM13 15.8C14.8075 15.8 16.2727 14.3674 16.2727 12.6C16.2727 10.8327 14.8075 9.40004 13 9.40004C11.1925 9.40004 9.72729 10.8327 9.72729 12.6C9.72729 14.3674 11.1925 15.8 13 15.8Z" fill="black"/>
</svg>