<svg xmlns="http://www.w3.org/2000/svg" viewBox="0 0 560 200"><defs><style>.cls-1{isolation:isolate;}.cls-2{fill:#3d4a4c;}.cls-3{fill:#e6e6e6;}.cls-4{fill:#5dc5cc;}.cls-4,.cls-5{opacity:0.9;}.cls-4,.cls-5,.cls-6{mix-blend-mode:multiply;}.cls-5{fill:#c21889;}.cls-6{fill:#2d8b8c;opacity:0.75;}</style></defs><title>Open Spending logo outlines</title><g class="cls-1"><g id="Layer_1" data-name="Layer 1"><path class="cls-2" d="M274.62,78.63a27.42,27.42,0,0,1-37.58,0,24.86,24.86,0,0,1-7.63-18.54A24.86,24.86,0,0,1,237,41.55a27.42,27.42,0,0,1,37.58,0,24.86,24.86,0,0,1,7.63,18.54A24.86,24.86,0,0,1,274.62,78.63Zm-3.82-18.5a16.47,16.47,0,0,0-4.32-11.48,14.24,14.24,0,0,0-21.24,0,16.47,16.47,0,0,0-4.32,11.48,16.34,16.34,0,0,0,4.32,11.45,14.32,14.32,0,0,0,21.24,0A16.34,16.34,0,0,0,270.81,60.13Z"/><path class="cls-2" d="M312.49,46.2q6.77,0,12.06,5.65a20,20,0,0,1,5.29,14.22,20.37,20.37,0,0,1-5.29,14.33,16.33,16.33,0,0,1-12.38,5.76,13.64,13.64,0,0,1-11.41-5.69V99.55H290V46.85h10.8v4.32A16,16,0,0,1,312.49,46.2ZM300.61,66.25a11.23,11.23,0,0,0,2.63,7.7,8.18,8.18,0,0,0,6.37,3,8.73,8.73,0,0,0,6.55-3A10.74,10.74,0,0,0,319,66.29a11.59,11.59,0,0,0-2.74-7.85,8.38,8.38,0,0,0-6.55-3.17,8.1,8.1,0,0,0-6.44,3.13A11.79,11.79,0,0,0,300.61,66.25Z"/><path class="cls-2" d="M370.74,80a21.66,21.66,0,0,1-15.37,6.19,20.4,20.4,0,0,1-14.58-5.44Q335,75.29,335,66.14T340.9,51.6a19.79,19.79,0,0,1,13.86-5.4A20,20,0,0,1,368.33,51q5.58,4.82,5.58,13.25V70H345.68A7.7,7.7,0,0,0,349,75.21a10.59,10.59,0,0,0,6.34,2,12.43,12.43,0,0,0,9.36-3.82ZM360.37,57a8.18,8.18,0,0,0-5.44-1.87,9.73,9.73,0,0,0-5.87,1.94,7.43,7.43,0,0,0-3.1,5.26h17A7.67,7.67,0,0,0,360.37,57Z"/><path class="cls-2" d="M391.76,64v21.6H381V46.85h10.8v4.32a15.12,15.12,0,0,1,11-5A13.64,13.64,0,0,1,413,50.52q4.14,4.32,4.14,11.52V85.58h-10.8V63.69q0-8.93-6.55-8.93a7.86,7.86,0,0,0-5.65,2.34Q391.76,59.45,391.76,64Z"/><path class="cls-2" d="M260.37,145.52a11.28,11.28,0,0,1-4.21,9.18,16.3,16.3,0,0,1-10.69,3.46,28.61,28.61,0,0,1-9-1.55A26.54,26.54,0,0,1,228,152l4.75-6.77A20.69,20.69,0,0,0,245.68,150a5.83,5.83,0,0,0,3.31-.83,2.54,2.54,0,0,0,1.22-2.2,3.17,3.17,0,0,0-1.69-2.52,19.16,19.16,0,0,0-4.9-2.16q-3.21-1-4.9-1.73a27.45,27.45,0,0,1-3.85-2.09,8.94,8.94,0,0,1-4.39-8.1,10.62,10.62,0,0,1,4.32-8.75q4.32-3.38,11.16-3.38a24.35,24.35,0,0,1,13.68,4.61l-4,7.2a17.69,17.69,0,0,0-10-3.46q-5,0-5,2.74a2.63,2.63,0,0,0,1.58,2.38,32,32,0,0,0,5.26,2q3.67,1.15,5.22,1.76a26.37,26.37,0,0,1,3.71,1.91Q260.37,139.8,260.37,145.52Z"/><path class="cls-2" d="M290.46,118.2q6.77,0,12.06,5.65a20,20,0,0,1,5.29,14.22,20.38,20.38,0,0,1-5.29,14.33,16.33,16.33,0,0,1-12.38,5.76,13.64,13.64,0,0,1-11.41-5.69v19.08h-10.8v-52.7h10.8v4.32A16,16,0,0,1,290.46,118.2Zm-11.88,20.05a11.23,11.23,0,0,0,2.63,7.7,8.18,8.18,0,0,0,6.37,3,8.73,8.73,0,0,0,6.55-3,10.74,10.74,0,0,0,2.81-7.67,11.59,11.59,0,0,0-2.74-7.85,8.38,8.38,0,0,0-6.55-3.17,8.11,8.11,0,0,0-6.44,3.13A11.79,11.79,0,0,0,278.58,138.25Z"/><path class="cls-2" d="M348.71,152a21.66,21.66,0,0,1-15.37,6.19,20.4,20.4,0,0,1-14.58-5.44Q313,147.29,313,138.14t5.87-14.54a19.79,19.79,0,0,1,13.86-5.4A20,20,0,0,1,346.3,123q5.58,4.82,5.58,13.25V142H323.65a7.7,7.7,0,0,0,3.31,5.18,10.59,10.59,0,0,0,6.34,2,12.43,12.43,0,0,0,9.36-3.82Zm-10.37-23a8.18,8.18,0,0,0-5.44-1.87,9.73,9.73,0,0,0-5.87,1.94,7.43,7.43,0,0,0-3.1,5.26h17A7.67,7.67,0,0,0,338.34,129Z"/><path class="cls-2" d="M369.73,136v21.6h-10.8V118.85h10.8v4.32a15.12,15.12,0,0,1,11-5A13.64,13.64,0,0,1,391,122.52q4.14,4.32,4.14,11.52v23.54h-10.8V135.69q0-8.93-6.55-8.93a7.86,7.86,0,0,0-5.65,2.34Q369.73,131.45,369.73,136Z"/><path class="cls-2" d="M419.74,158.16q-6.88,0-12.28-5.83a20.49,20.49,0,0,1-5.4-14.47q0-8.64,5.26-14.15a16.49,16.49,0,0,1,12.31-5.51,14.78,14.78,0,0,1,11.52,5v-19h10.8v53.42h-10.8v-5.11A14,14,0,0,1,419.74,158.16Zm-6.8-19.87a10.74,10.74,0,0,0,2.81,7.67,8.73,8.73,0,0,0,6.55,3,8.18,8.18,0,0,0,6.37-3,11.23,11.23,0,0,0,2.63-7.7,11.8,11.8,0,0,0-2.63-7.85,8.11,8.11,0,0,0-6.44-3.13,8.38,8.38,0,0,0-6.55,3.17A11.58,11.58,0,0,0,412.93,138.29Z"/><path class="cls-2" d="M452.35,113.91a6.43,6.43,0,1,1,4.5,1.84A6.12,6.12,0,0,1,452.35,113.91Zm9.9,43.67h-10.8V118.85h10.8Z"/><path class="cls-2" d="M482.55,136v21.6h-10.8V118.85h10.8v4.32a15.12,15.12,0,0,1,11-5,13.64,13.64,0,0,1,10.26,4.32Q508,126.84,508,134v23.54h-10.8V135.69q0-8.93-6.55-8.93a7.86,7.86,0,0,0-5.65,2.34Q482.55,131.45,482.55,136Z"/><path class="cls-2" d="M545.7,151A16.39,16.39,0,0,1,533,156.72a17.55,17.55,0,0,1-12.82-5.15Q515,146.42,515,137.82t5.36-14.11a16.69,16.69,0,0,1,12.28-5.51A14.05,14.05,0,0,1,544,123.89v-5.11h10.8v33.77a22.41,22.41,0,0,1-1.8,9.22,15.94,15.94,0,0,1-4.82,6.34,22,22,0,0,1-14.11,4.75,29.49,29.49,0,0,1-8.82-1.4,25.12,25.12,0,0,1-7.88-4l4.18-8.14a18.37,18.37,0,0,0,11.27,4q5.94,0,9.4-3T545.7,151Zm-1.51-13.64a10,10,0,0,0-2.59-7.31,8.59,8.59,0,0,0-6.41-2.66,9.18,9.18,0,0,0-6.59,2.66,9.61,9.61,0,0,0-2.77,7.27,10.38,10.38,0,0,0,2.7,7.45,8.74,8.74,0,0,0,6.59,2.84,8.45,8.45,0,0,0,6.48-2.81A10.55,10.55,0,0,0,544.18,137.39Z"/><circle class="cls-3" cx="29.1" cy="20" r="8"/><circle class="cls-3" cx="29.1" cy="100" r="8"/><circle class="cls-3" cx="29.1" cy="180" r="8"/><circle class="cls-3" cx="109.1" cy="20" r="8"/><circle class="cls-3" cx="109.1" cy="100" r="8"/><circle class="cls-3" cx="109.1" cy="180" r="8"/><circle class="cls-3" cx="189.1" cy="20" r="8"/><circle class="cls-3" cx="189.1" cy="100" r="8"/><circle class="cls-3" cx="189.1" cy="180" r="8"/><path class="cls-4" d="M189,108.26,80,108l-8-8V20l8-8H189l8,8v80.26ZM88,92l93,.22V28H88Z"/><path class="cls-5" d="M35.43,184.76,21,180V20l8-8H147.4l6.43,12.76ZM37,28V155.74L131.53,28Z"/><path class="cls-6" d="M87.3,187.59c-36.39,0-66-31.85-66-71s29.61-71,66-71,66,31.85,66,71S123.7,187.59,87.3,187.59Zm0-126c-27.57,0-50,24.67-50,55s22.43,55,50,55,50-24.67,50-55S114.87,61.59,87.3,61.59Z"/></g></g></svg>
