<svg id="Layer_2" xmlns="http://www.w3.org/2000/svg" viewBox="0 0 126 73.58">
    <defs>
        <style>.cls-1{fill:#7dd0e3;}.cls-1,.cls-2{stroke-width:0px;}.cls-2{fill:#035c6e;}</style>
    </defs>
    <path class="cls-2" d="M117.93,21.04l-44.5,44.49c12.96,11.61,32.88,10.52,44.5-2.44,10.72-11.97,10.73-30.09,0-42.05"/>
    <path class="cls-1" d="M126,8l-44.49,44.49c-11.59-12.98-10.45-32.9,2.53-44.49,11.95-10.67,30.01-10.67,41.96,0"/>
    <path class="cls-2" d="M54.95,21.04L10.46,65.53c12.98,11.59,32.9,10.45,44.49-2.53,10.67-11.95,10.67-30.01,0-41.96"/>
    <path class="cls-1" d="M52.47,18.55L7.97,63.05C-3.6,50.04-2.44,30.12,10.57,18.55c11.95-10.63,29.95-10.63,41.9,0"/>
</svg>