<svg version="1.1" id="LOGO" xmlns="http://www.w3.org/2000/svg" xmlns:xlink="http://www.w3.org/1999/xlink" x="0px" y="0px"
	 viewBox="0 0 120 64.36" style="enable-background:new 0 0 120 64.36;" xml:space="preserve">
<circle cx="115.12" cy="4.88" r="4.88"/>
<g>
	<path d="M34.63,32.33c-1.09-0.73-2.32-1.29-3.68-1.67c-1.36-0.38-2.72-0.71-4.06-1.01c-1.13-0.25-2.24-0.46-3.3-0.63
		c-1.07-0.17-2.01-0.39-2.83-0.66c-0.82-0.27-1.48-0.61-1.98-1.01c-0.5-0.4-0.76-0.95-0.76-1.67c0-1.17,0.5-2.07,1.51-2.68
		c1.01-0.61,2.35-0.91,4.03-0.91c1.85,0,3.29,0.35,4.34,1.04c1.05,0.69,1.68,1.92,1.89,3.68h7.74c-0.34-3.27-1.66-5.87-3.96-7.8
		c-2.31-1.93-5.6-2.89-9.88-2.89c-1.85,0-3.57,0.21-5.16,0.63c-1.6,0.42-2.99,1.06-4.19,1.92c-1.2,0.86-2.13,1.93-2.8,3.21
		c-0.67,1.28-1.01,2.8-1.01,4.56c0,1.76,0.33,3.21,0.98,4.34c0.65,1.13,1.51,2.06,2.58,2.77c1.07,0.71,2.29,1.26,3.65,1.64
		c1.36,0.38,2.78,0.71,4.25,1.01c1.09,0.21,2.15,0.41,3.18,0.6c1.03,0.19,1.93,0.43,2.71,0.72c0.78,0.29,1.41,0.67,1.89,1.13
		c0.48,0.46,0.73,1.07,0.73,1.83c0,1.13-0.51,2.04-1.54,2.71c-1.03,0.67-2.49,1.01-4.37,1.01c-1.93,0-3.52-0.42-4.75-1.26
		c-1.24-0.84-2.01-2.2-2.3-4.09H9.58c0.25,3.44,1.66,6.2,4.22,8.28c2.56,2.08,6.19,3.12,10.89,3.12c2.01,0,3.85-0.24,5.51-0.72
		c1.66-0.48,3.09-1.17,4.28-2.05c1.2-0.88,2.13-1.96,2.8-3.24c0.67-1.28,1.01-2.74,1.01-4.37c0-1.89-0.34-3.43-1.01-4.63
		C36.6,34.03,35.72,33.07,34.63,32.33z"/>
	<polygon points="111.16,56.12 104.4,56.12 104.4,64.36 119.4,64.36 119.4,17.01 110.84,17.01 	"/>
	<path d="M104.41,50.16V0.99h-8.56v18.82h-0.4c-2.71-2.41-6.17-3.84-9.95-3.82c-8.66,0.05-15.68,7.74-15.68,17.18
		c0,9.43,7.02,17.04,15.68,16.99c3.92-0.02,7.49-1.61,10.24-4.22h0.42v4.22H104.41z M86.5,43.12c-5.19,0-9.4-4.5-9.4-10.04
		c0-5.55,4.21-10.04,9.4-10.04c5.19,0,9.4,4.5,9.4,10.04C95.89,38.62,91.69,43.12,86.5,43.12z"/>
	<path d="M55.96,33.75c-0.25,0.8-0.46,1.5-0.63,2.11c-0.17,0.61-0.31,1.15-0.44,1.61c-0.17,0.5-0.27,1.73-0.31,2.19h-0.13
		c-0.08-0.46-0.21-1.69-0.38-2.19c-0.12-0.46-0.28-1-0.47-1.61c-0.19-0.61-0.39-1.31-0.6-2.11l-5.16-16.74h-8.69l11.49,33.12h7.6
		L69.8,17.01h-8.56L55.96,33.75z"/>
</g>
<polygon points="3.06,4.1 3.06,15.99 0,15.99 0,1.18 0,1.18 0,0.99 47.86,0.99 47.86,4.1 "/>
</svg>
