<svg id="AdobeStock_429133775_Omgezet_" data-name="AdobeStock_429133775 [Omgezet]" xmlns="http://www.w3.org/2000/svg" width="1058.568" height="729.85" viewBox="0 0 1058.568 729.85">
  <ellipse id="Ellipse_1" data-name="Ellipse 1" cx="429.157" cy="47.433" rx="429.157" ry="47.433" transform="translate(121.762 634.983)" fill="#578dce"/>
  <g id="Group_149" data-name="Group 149" transform="translate(218.597 92.389)">
    <path id="Path_162" data-name="Path 162" d="M1008,190.784,410.846,163.64a22.281,22.281,0,0,0-23.7,23.8l20.588,422.658c.627,12.863,11.881,23.27,25.111,23.27h575.9c11.762,0,21.277-9.78,21.277-21.87V215.11C1030.019,202.236,1020.176,191.337,1008,190.784Z" transform="translate(-387.117 -163.613)" fill="#7fb2f0"/>
    <path id="Path_163" data-name="Path 163" d="M472.261,616.437,455.14,243.313a11.125,11.125,0,0,1,11.779-11.841l548.695,22.966c6.1.254,11.051,5.681,11.068,12.118l.881,352.389a10.8,10.8,0,0,1-10.7,10.983l-532.116-1.8a12.531,12.531,0,0,1-12.485-11.689Z" transform="translate(-416.723 -193.148)" fill="#add5f7"/>
  </g>
  <rect id="Rectangle_3" data-name="Rectangle 3" width="332.032" height="24.281" transform="translate(395.068 658.135)" fill="#7fb2f0"/>
  <rect id="Rectangle_4" data-name="Rectangle 4" width="159.24" height="95.996" transform="translate(476.382 562.14)" fill="#fff"/>
  <rect id="Rectangle_5" data-name="Rectangle 5" width="159.24" height="47.998" transform="translate(476.382 562.14)" fill="#c1d6e5"/>
  <path id="Path_164" data-name="Path 164" d="M623.13,773H974.079v42.2a19.354,19.354,0,0,1-19.346,19.346H642.476A19.354,19.354,0,0,1,623.13,815.2V773Z" transform="translate(-271.26 -336.502)" fill="#7fb2f0"/>
  <g id="Group_150" data-name="Group 150" transform="translate(329.689 24.564)">
    <path id="Path_165" data-name="Path 165" d="M919.146,43.5H594.455c-6.24,0-10.972,5.771-10.582,12.869l23.75,428.971a10.577,10.577,0,0,0,10.424,9.9H946.37a10.577,10.577,0,0,0,10.424-9.9L977.4,113.165,919.141,43.5Z" transform="translate(-583.85 -43.5)" fill="#fff"/>
    <path id="Path_166" data-name="Path 166" d="M1173.772,100.7c-.266,6.895,4.483,12.463,10.6,12.463h49.839L1175.952,43.5l-2.18,57.2Z" transform="translate(-840.65 -43.5)" fill="#add5f7"/>
    <path id="Path_167" data-name="Path 167" d="M974.37,311.523h-256.2l-.209-5.923H974.6Z" transform="translate(-642.231 -157.597)" fill="#add5f7"/>
    <path id="Path_168" data-name="Path 168" d="M974.169,342.847H719.289l-.209-5.867H974.395Z" transform="translate(-642.718 -171.257)" fill="#add5f7"/>
    <path id="Path_169" data-name="Path 169" d="M973.97,373.845H720.389l-.209-5.8H974.2Z" transform="translate(-643.197 -184.779)" fill="#add5f7"/>
    <path id="Path_170" data-name="Path 170" d="M973.777,404.538H721.483l-.2-5.748H974Z" transform="translate(-643.676 -198.165)" fill="#add5f7"/>
    <path id="Path_171" data-name="Path 171" d="M972.772,560.169H727.018l-.2-5.449H972.987Z" transform="translate(-646.088 -266.044)" fill="#add5f7"/>
    <path id="Path_172" data-name="Path 172" d="M972.588,588.994H728.042l-.192-5.4H972.8Z" transform="translate(-646.536 -278.612)" fill="#add5f7"/>
    <path id="Path_173" data-name="Path 173" d="M972.411,617.537H729.056l-.186-5.348H972.62Z" transform="translate(-646.98 -291.062)" fill="#add5f7"/>
    <path id="Path_174" data-name="Path 174" d="M972.23,645.8H730.066l-.186-5.291H972.433Z" transform="translate(-647.42 -303.39)" fill="#add5f7"/>
    <path id="Path_175" data-name="Path 175" d="M973.581,434.912H722.563l-.2-5.692H973.8Z" transform="translate(-644.146 -211.411)" fill="#add5f7"/>
    <path id="Path_176" data-name="Path 176" d="M973.386,464.98H723.628l-.2-5.63H973.606Z" transform="translate(-644.612 -224.527)" fill="#add5f7"/>
    <path id="Path_177" data-name="Path 177" d="M861.774,267.74H716.611l-.582-16.24H861.876Z" transform="translate(-641.391 -134.046)" fill="#add5f7"/>
    <path id="Path_178" data-name="Path 178" d="M972.71,522.829H725.691l-.531-14.919H973.292Z" transform="translate(-645.365 -245.666)" fill="#add5f7"/>
  </g>
  <g id="Group_152" data-name="Group 152" transform="translate(588.742 179.128)">
    <path id="Path_179" data-name="Path 179" d="M1083.64,358.25a140.083,140.083,0,1,0,198.107,0A140.082,140.082,0,0,0,1083.64,358.25Zm175.175,175.175a107.656,107.656,0,1,1,0-152.249A107.783,107.783,0,0,1,1258.815,533.425Z" transform="translate(-1042.61 -317.22)" fill="#4e7ac7"/>
    <g id="Group_151" data-name="Group 151" transform="translate(32.424 32.424)" opacity="0.2">
      <circle id="Ellipse_2" data-name="Ellipse 2" cx="107.656" cy="107.656" r="107.656" fill="#fff"/>
    </g>
    <path id="Path_180" data-name="Path 180" d="M1524.26,798.065h0a22.284,22.284,0,0,1-32.825-1.434l-79.755-95.092,16.048-16.048,95.092,79.755a22.275,22.275,0,0,1,1.434,32.825Z" transform="translate(-1203.273 -477.535)" fill="#4e7ac7"/>
    <path id="Path_181" data-name="Path 181" d="M1447.4,741.067l13.338,15.9a168.594,168.594,0,0,0,22.407-22.57l-15.9-13.338a148.25,148.25,0,0,1-19.837,20.007Z" transform="translate(-1218.823 -493.019)" fill="#35478c"/>
  </g>
  <path id="Path_182" data-name="Path 182" d="M500.107,579.285H268.746c-7.019,0-13.106-5.494-13.547-12.3L243.528,387.661a11.191,11.191,0,0,1,12.615-12.248l243.507,23.3c5.794.553,10.464,6.285,10.464,12.779V568.455c0,5.986-4.467,10.825-10,10.825Z" transform="translate(-106 -163.398)" fill="#18a070"/>
  <g id="Group_153" data-name="Group 153" transform="translate(137.493 211.959)" opacity="0.2">
    <path id="Path_183" data-name="Path 183" d="M256.133,375.422a11.188,11.188,0,0,0-12.615,12.248L255.19,567a13.018,13.018,0,0,0,5.048,9.323l222.01-179.258L256.127,375.428Z" transform="translate(-243.489 -375.36)" fill="#18a070"/>
  </g>
  <path id="Path_184" data-name="Path 184" d="M1566.859,250.632l123.117-17.505a5.461,5.461,0,0,1,6.483,5.89l-6.895,133.824a6.694,6.694,0,0,1-6.725,6.149H1566.6a5.182,5.182,0,0,1-4.969-5.381V257.3c0-3.27,2.332-6.257,5.229-6.669Z" transform="translate(-679.808 -101.454)" fill="#fff"/>
  <path id="Path_185" data-name="Path 185" d="M1648.141,312.462l9.78,19.815a2.018,2.018,0,0,0,1.519,1.107l21.865,3.179a2.02,2.02,0,0,1,1.118,3.445L1666.6,355.428a2.027,2.027,0,0,0-.582,1.79l3.733,21.774a2.02,2.02,0,0,1-2.931,2.129l-19.555-10.283a2.014,2.014,0,0,0-1.88,0l-19.555,10.283a2.02,2.02,0,0,1-2.931-2.129l3.733-21.774a2.032,2.032,0,0,0-.582-1.79l-15.822-15.421a2.02,2.02,0,0,1,1.118-3.445l21.865-3.179a2.019,2.019,0,0,0,1.519-1.107l9.78-19.815a2.017,2.017,0,0,1,3.62,0Z" transform="translate(-700.697 -135.53)" fill="#18a070"/>
  <path id="Path_186" data-name="Path 186" d="M414.453,76.632,291.335,59.127a5.461,5.461,0,0,0-6.483,5.89l6.895,133.824a6.694,6.694,0,0,0,6.725,6.149H414.712a5.182,5.182,0,0,0,4.969-5.381V83.3c0-3.269-2.332-6.257-5.229-6.669Z" transform="translate(-123.998 -25.709)" fill="#fff"/>
  <path id="Path_187" data-name="Path 187" d="M348.81,181.586a18.289,18.289,0,0,1,31.057-13.1,18.289,18.289,0,0,1,31.057,13.1c0,19.143-31.057,32.757-31.057,32.757S348.81,199.029,348.81,181.586Z" transform="translate(-151.844 -71.083)" fill="#18a070"/>
  <g id="Group_154" data-name="Group 154" transform="translate(902.151 287.14)">
    <path id="Path_188" data-name="Path 188" d="M1663.133,695.436h-41.154L1597.63,582.5h65.5Z" transform="translate(-1597.63 -540.714)" fill="#506cbf"/>
    <path id="Path_189" data-name="Path 189" d="M1790.427,550.286h-36.942a57.788,57.788,0,0,0,7.014-27.669,14.117,14.117,0,1,0-28.234,0,29.972,29.972,0,0,1-18.533,27.669h-.1V663.222h59.856a14.115,14.115,0,0,0,14.117-14.117h0a14.115,14.115,0,0,0-14.117-14.117h5.647a14.115,14.115,0,0,0,14.117-14.117h0a14.115,14.115,0,0,0-14.117-14.117h5.647a14.115,14.115,0,0,0,14.117-14.117h0a14.115,14.115,0,0,0-14.117-14.117h5.647a14.115,14.115,0,0,0,14.117-14.117h0A14.115,14.115,0,0,0,1790.427,550.286Z" transform="translate(-1648.127 -508.5)" fill="#fff"/>
  </g>
  <g id="Group_155" data-name="Group 155" transform="translate(122.609)">
    <rect id="Rectangle_6" data-name="Rectangle 6" width="22.587" height="2.823" transform="translate(0 35.293)" fill="#fff"/>
    <rect id="Rectangle_7" data-name="Rectangle 7" width="2.823" height="22.587" transform="translate(9.751 11.751) rotate(-45)" fill="#fff"/>
    <rect id="Rectangle_8" data-name="Rectangle 8" width="2.823" height="22.587" transform="translate(35.293)" fill="#fff"/>
  </g>
  <g id="Group_156" data-name="Group 156" transform="translate(0 420.557)">
    <rect id="Rectangle_9" data-name="Rectangle 9" width="22.587" height="2.823" transform="translate(36.795 47.631) rotate(-18.17)" fill="#fff"/>
    <path id="Path_190" data-name="Path 190" d="M58.845,777.194l-10.08-5.1C43.271,769.317.536,747.56,0,747.288H0l1.282-2.518,58.845,29.905-1.276,2.518Z" transform="translate(0 -744.77)" fill="#fff"/>
    <rect id="Rectangle_10" data-name="Rectangle 10" width="2.823" height="22.587" transform="translate(59.319 3.094) rotate(-18.17)" fill="#fff"/>
  </g>
  <g id="Group_157" data-name="Group 157" transform="translate(1011.134 96.56)">
    <rect id="Rectangle_11" data-name="Rectangle 11" width="2.823" height="22.587" fill="#fff"/>
    <rect id="Rectangle_12" data-name="Rectangle 12" width="22.587" height="2.823" transform="translate(10.418 25.755) rotate(-44.99)" fill="#fff"/>
    <rect id="Rectangle_13" data-name="Rectangle 13" width="22.587" height="2.823" transform="translate(15.529 35.293)" fill="#fff"/>
  </g>
  <g id="Group_158" data-name="Group 158" transform="translate(43.913 390.214)">
    <path id="Path_191" data-name="Path 191" d="M297.686,850.669,173.309,731.77l-61.5,115.076,167.97,37.331Z" transform="translate(-92.586 -708.768)" fill="#fff"/>
    <rect id="Rectangle_14" data-name="Rectangle 14" width="11.858" height="168.84" transform="translate(79.577 0) rotate(28.12)" fill="#4e7ac7"/>
    <rect id="Rectangle_15" data-name="Rectangle 15" width="6.776" height="49.127" transform="translate(45.126 50.094) rotate(28.12)" fill="#fff"/>
    <path id="Path_192" data-name="Path 192" d="M143.76,829.7l-31.95,59.777,167.97,37.331,10.147-19Z" transform="translate(-92.586 -751.398)" fill="#d9e8f5"/>
    <path id="Path_193" data-name="Path 193" d="M353.32,850.383l84.838,40.567a11.288,11.288,0,0,1,4.224,16.878l-50.81,69.094a11.292,11.292,0,0,1-14.422,3.27L305.1,941.686A11.294,11.294,0,0,1,300.46,926.4l38.026-71.156a11.3,11.3,0,0,1,14.834-4.867Z" transform="translate(-174.127 -759.918)" fill="#4e7ac7"/>
    <path id="Path_194" data-name="Path 194" d="M298.335,1071.346l-15.935-8.516L305.286,1020l55.282,29.544Z" transform="translate(-166.847 -834.24)" fill="#fff"/>
    <path id="Path_195" data-name="Path 195" d="M352.21,1056.642l20.261-7.1L317.188,1020l-7.448,13.947Z" transform="translate(-178.748 -834.24)" fill="#d9e8f5"/>
  </g>
  <path id="Path_196" data-name="Path 196" d="M1337.516,449.682a5.63,5.63,0,0,1-3.992-1.655,43.2,43.2,0,0,0-30.747-12.734,5.647,5.647,0,1,1,0-11.294,54.417,54.417,0,0,1,38.731,16.043,5.647,5.647,0,0,1-3.992,9.639Z" transform="translate(-564.666 -184.575)" fill="#fff"/>
  <path id="Path_197" data-name="Path 197" d="M446.63,533.5l49.692,24.846L446.63,583.192Z" transform="translate(-194.427 -232.243)" fill="#fff"/>
</svg>
